<svg width="1426" height="195" viewBox="0 0 1426 195" fill="none" xmlns="http://www.w3.org/2000/svg">
<g clip-path="url(#clip0_1378_48)">
<path d="M305.758 144.66C303.261 137.346 299.96 128.203 295.857 117.231C295.5 115.982 295.01 114.555 294.385 112.949H260.4L249.027 144.66H245.682L279.132 50.9999H285.421C299.247 89.4451 311.021 120.665 320.744 144.66H305.758ZM261.47 109.872H293.181C288.543 97.2947 283.101 82.8889 276.857 66.6545L261.47 109.872ZM338.891 47.1197C340.853 47.1197 342.548 47.8779 343.975 49.3943C345.402 50.8215 346.116 52.5609 346.116 54.6125C346.116 56.5749 345.402 58.2697 343.975 59.6969C342.548 61.1241 340.853 61.8377 338.891 61.8377C336.839 61.8377 335.055 61.1241 333.539 59.6969C332.111 58.2697 331.398 56.5749 331.398 54.6125C331.398 52.5609 332.111 50.8215 333.539 49.3943C335.055 47.8779 336.839 47.1197 338.891 47.1197ZM332.334 144.66C332.602 133.421 332.736 122.271 332.736 111.21C332.736 99.9707 332.602 88.8207 332.334 77.7599H346.25C345.893 88.9099 345.714 101.487 345.714 115.492C345.714 121.914 345.804 131.637 345.982 144.66H332.334ZM485.9 50.9999C485.543 63.5771 485.365 79.1871 485.365 97.8299C485.365 116.294 485.543 131.904 485.9 144.66H471.985C472.342 132.975 472.52 118.703 472.52 101.844H424.352C424.352 118.703 424.531 132.975 424.887 144.66H410.972C411.418 128.782 411.641 113.172 411.641 97.8299C411.641 82.3983 411.418 66.7883 410.972 50.9999H424.887C424.531 67.0559 424.352 80.0345 424.352 89.9357V98.7665H472.52V89.9357C472.52 80.0345 472.342 67.0559 471.985 50.9999H485.9ZM530.645 76.8233C531.358 76.7341 532.384 76.6895 533.722 76.6895C541.037 76.6895 547.37 78.3843 552.722 81.7739C558.163 85.1635 562.266 89.5789 565.031 95.0201C567.886 100.461 569.313 106.215 569.313 112.28C569.313 118.078 567.975 123.475 565.299 128.47C562.712 133.465 558.698 137.524 553.257 140.646C547.905 143.679 541.349 145.195 533.588 145.195C526.185 145.195 519.762 143.545 514.321 140.245C508.969 136.855 504.866 132.484 502.012 127.132C499.246 121.78 497.864 116.071 497.864 110.006C497.864 104.475 499.068 99.3017 501.476 94.4849C503.974 89.5789 507.676 85.5203 512.582 82.3091C517.577 79.0979 523.598 77.2693 530.645 76.8233ZM531.983 78.4289C527.255 78.4289 523.241 79.8561 519.941 82.7105C516.73 85.4757 514.277 89.1329 512.582 93.6821C510.976 98.2313 510.173 103.137 510.173 108.4C510.173 114.287 511.155 119.907 513.117 125.259C515.079 130.611 517.978 134.982 521.814 138.371C525.65 141.672 530.243 143.322 535.595 143.322C542.731 143.322 548.128 140.601 551.785 135.16C555.532 129.719 557.405 123.029 557.405 115.09C557.405 109.114 556.334 103.316 554.194 97.6961C552.142 91.9873 549.198 87.3489 545.363 83.7809C541.527 80.2129 537.067 78.4289 531.983 78.4289ZM612.218 80.1683H593.753L593.62 124.991C593.62 129.719 593.843 133.332 594.289 135.829C594.824 138.238 595.939 140.022 597.634 141.181C599.418 142.341 602.138 142.876 605.795 142.787V144.66C600.265 144.838 595.716 144.482 592.148 143.59C588.58 142.698 585.77 140.78 583.718 137.836C581.667 134.893 580.641 130.566 580.641 124.858V80.1683H572.212V77.8937H580.641V60.4997L593.887 51.9365L593.753 77.8937H612.218V80.1683ZM648.048 141.047C653.846 141.047 658.574 139.576 662.231 136.632C665.888 133.599 668.341 129.897 669.59 125.527H671.597C670.259 130.522 667.494 134.893 663.301 138.639C659.109 142.296 653.534 144.437 646.576 145.061C644.435 145.24 642.874 145.329 641.893 145.329C634.4 145.329 627.978 143.768 622.626 140.646C617.363 137.435 613.394 133.287 610.718 128.203C608.131 123.029 606.838 117.499 606.838 111.611C606.838 105.635 608.176 100.015 610.852 94.7525C613.617 89.4005 617.675 85.0743 623.027 81.7739C628.469 78.4735 634.936 76.8233 642.428 76.8233C649.208 76.8233 654.783 78.1613 659.153 80.8373C663.524 83.5133 666.691 86.8137 668.653 90.7385C670.705 94.5741 671.731 98.3651 671.731 102.112L671.864 104.654L619.415 107.33C619.326 113.039 620.351 118.48 622.492 123.653C624.633 128.827 627.889 133.019 632.26 136.231C636.63 139.442 641.893 141.047 648.048 141.047ZM642.964 78.5627C636.095 78.5627 630.609 81.1049 626.506 86.1893C622.403 91.1845 620.084 97.3839 619.549 104.788L662.365 102.647C662.365 98.1867 661.16 93.1023 658.752 87.3935C656.433 81.5955 651.17 78.6519 642.964 78.5627ZM695.362 43.5071C695.005 56.0843 694.827 72.9431 694.827 94.0835C694.827 115.046 695.005 131.904 695.362 144.66H681.447C681.893 128.782 682.116 111.924 682.116 94.0835C682.116 76.1543 681.893 59.2955 681.447 43.5071H695.362ZM757.391 90.8723C755.785 87.4827 753.109 84.6283 749.363 82.3091C745.706 79.9007 741.156 78.6965 735.715 78.6965C731.077 78.6965 727.063 79.9453 723.673 82.4429C720.284 84.8513 718.589 87.7949 718.589 91.2737C718.589 92.9685 719.079 94.7079 720.061 96.4919C721.309 98.5435 723.272 100.283 725.948 101.71C728.713 103.137 732.549 104.788 737.455 106.661C743.699 109.069 748.515 111.255 751.905 113.217C755.384 115.179 757.792 117.811 759.13 121.111C759.933 122.984 760.334 124.902 760.334 126.865C760.334 130.165 759.219 133.287 756.989 136.231C754.849 139.085 751.816 141.404 747.891 143.188C744.055 144.972 739.685 145.864 734.779 145.864C726.037 145.864 719.302 144.169 714.575 140.78C709.847 137.39 706.993 133.287 706.012 128.47L708.019 128.604C709.624 132.796 712.523 136.364 716.716 139.308C720.908 142.252 726.305 143.723 732.905 143.723C737.99 143.723 742.004 142.564 744.947 140.245C747.98 137.925 749.497 135.116 749.497 131.815C749.497 129.496 748.694 127.221 747.088 124.991C745.75 123.029 743.699 121.379 740.933 120.041C738.257 118.614 734.243 116.83 728.891 114.689C722.201 112.28 717.028 109.961 713.371 107.731C709.713 105.501 707.573 102.647 706.948 99.1679C706.77 97.9191 706.681 96.9825 706.681 96.3581C706.681 92.7009 707.929 89.4005 710.427 86.4569C712.925 83.4241 716.27 81.0603 720.462 79.3655C724.744 77.5815 729.293 76.6895 734.11 76.6895C741.156 76.6895 746.821 78.0721 751.102 80.8373C755.384 83.6025 758.194 86.9475 759.532 90.8723H757.391ZM856.47 124.055C865.836 134.67 873.418 140.512 879.216 141.583C878.413 142.385 877.03 143.144 875.068 143.857C873.195 144.571 871.143 144.928 868.913 144.928C865.345 144.928 862.178 143.902 859.413 141.85C856.024 139.085 852.946 136.097 850.181 132.886C847.951 135.562 845.632 137.836 843.223 139.709C840.904 141.583 838.273 142.965 835.329 143.857C830.512 145.374 826.142 146.132 822.217 146.132C817.222 146.132 812.806 145.106 808.971 143.054C805.224 140.914 802.325 138.104 800.274 134.625C798.222 131.146 797.196 127.4 797.196 123.386C797.196 119.193 798.311 115.09 800.541 111.076C802.771 106.973 806.161 103.36 810.71 100.238C812.048 99.2571 815.036 97.2947 819.675 94.3511L822.618 92.4779C819.05 84.9851 816.686 78.6519 815.527 73.4783C815.17 71.9619 814.992 70.3117 814.992 68.5277C814.992 63.0865 816.909 58.7157 820.745 55.4153C824.67 52.0257 829.799 50.3309 836.132 50.3309C841.752 50.3309 846.212 51.5797 849.512 54.0773C852.902 56.5749 854.597 59.7415 854.597 63.5771C854.597 65.9855 853.838 68.5277 852.322 71.2037C850.895 73.8797 848.709 76.5557 845.766 79.2317C843.357 81.3725 839.031 84.8959 832.787 89.8019C835.552 94.9755 838.808 100.328 842.554 105.858C846.301 111.388 850.181 116.562 854.195 121.379L855.667 118.569C858.7 112.86 861.376 108.623 863.695 105.858C866.014 103.004 868.869 101.532 872.258 101.443V110.14C869.315 110.407 866.683 111.656 864.364 113.886C862.134 116.116 859.503 119.506 856.47 124.055ZM825.562 72.4079C826.721 76.6003 828.684 81.5063 831.449 87.1259C834.571 85.0743 837.113 83.3795 839.076 82.0415C841.038 80.6143 842.644 79.1871 843.892 77.7599C847.104 74.2811 848.709 70.2225 848.709 65.5841C848.709 62.1053 847.817 59.0725 846.033 56.4857C844.249 53.8097 841.93 52.2933 839.076 51.9365L837.202 51.8027C833.634 51.8027 830.646 52.9177 828.238 55.1477C825.829 57.3777 824.625 60.7227 824.625 65.1827C824.625 67.5019 824.937 69.9103 825.562 72.4079ZM836.533 140.245C840.904 138.817 844.829 135.695 848.308 130.879C844.115 126.062 839.923 120.621 835.731 114.555C831.538 108.489 827.836 102.379 824.625 96.2243C822.752 97.7407 820.165 99.8815 816.865 102.647C814.189 104.966 812.137 107.642 810.71 110.675C809.372 113.618 808.703 116.651 808.703 119.773C808.703 123.52 809.595 127.043 811.379 130.343C813.163 133.644 815.616 136.32 818.738 138.371C821.86 140.334 825.428 141.315 829.442 141.315C831.94 141.315 834.303 140.958 836.533 140.245ZM966.167 108.668C971.162 110.273 975.132 112.771 978.075 116.161C981.108 119.55 984.275 124.055 987.575 129.674C990.162 134.134 992.436 137.524 994.399 139.843C996.361 142.162 998.77 143.768 1001.62 144.66C998.324 145.909 994.979 146.533 991.589 146.533C986.326 146.533 982.357 144.749 979.681 141.181C978.7 140.2 977.808 138.996 977.005 137.569C976.291 136.052 975.221 133.733 973.794 130.611C972.01 126.597 970.404 123.297 968.977 120.71C967.639 118.123 965.855 115.804 963.625 113.752C961.395 111.701 958.763 110.452 955.731 110.006H955.329H929.238C929.238 118.837 929.417 130.388 929.773 144.66H915.858C916.304 128.782 916.527 113.172 916.527 97.8299C916.527 82.3983 916.304 66.7883 915.858 50.9999H929.773H951.85C959.432 50.9999 965.944 52.4717 971.385 55.4153C976.826 58.2697 980.93 62.0607 983.695 66.7883C986.46 71.4267 987.843 76.3773 987.843 81.6401C987.843 87.7949 985.969 93.3699 982.223 98.3651C978.477 103.36 973.125 106.795 966.167 108.668ZM929.64 54.0773C929.372 66.2085 929.238 79.3655 929.238 93.5483V107.196H951.583C952.386 107.107 953.501 107.062 954.928 107.062C959.209 106.616 962.867 105.144 965.899 102.647C969.021 100.149 971.341 97.0271 972.857 93.2807C974.463 89.5343 975.265 85.5649 975.265 81.3725C975.265 76.6449 974.24 72.1849 972.188 67.9925C970.226 63.8001 967.237 60.4105 963.223 57.8237C959.299 55.2369 954.526 53.9435 948.907 53.9435L929.64 54.0773ZM1040.17 141.047C1045.97 141.047 1050.7 139.576 1054.35 136.632C1058.01 133.599 1060.46 129.897 1061.71 125.527H1063.72C1062.38 130.522 1059.62 134.893 1055.42 138.639C1051.23 142.296 1045.66 144.437 1038.7 145.061C1036.56 145.24 1035 145.329 1034.02 145.329C1026.52 145.329 1020.1 143.768 1014.75 140.646C1009.49 137.435 1005.52 133.287 1002.84 128.203C1000.25 123.029 998.96 117.499 998.96 111.611C998.96 105.635 1000.3 100.015 1002.97 94.7525C1005.74 89.4005 1009.8 85.0743 1015.15 81.7739C1020.59 78.4735 1027.06 76.8233 1034.55 76.8233C1041.33 76.8233 1046.91 78.1613 1051.28 80.8373C1055.65 83.5133 1058.81 86.8137 1060.78 90.7385C1062.83 94.5741 1063.85 98.3651 1063.85 102.112L1063.99 104.654L1011.54 107.33C1011.45 113.039 1012.47 118.48 1014.61 123.653C1016.76 128.827 1020.01 133.019 1024.38 136.231C1028.75 139.442 1034.02 141.047 1040.17 141.047ZM1035.09 78.5627C1028.22 78.5627 1022.73 81.1049 1018.63 86.1893C1014.53 91.1845 1012.21 97.3839 1011.67 104.788L1054.49 102.647C1054.49 98.1867 1053.28 93.1023 1050.87 87.3935C1048.56 81.5955 1043.29 78.6519 1035.09 78.5627ZM1123.64 90.8723C1122.04 87.4827 1119.36 84.6283 1115.61 82.3091C1111.96 79.9007 1107.41 78.6965 1101.97 78.6965C1097.33 78.6965 1093.31 79.9453 1089.92 82.4429C1086.53 84.8513 1084.84 87.7949 1084.84 91.2737C1084.84 92.9685 1085.33 94.7079 1086.31 96.4919C1087.56 98.5435 1089.52 100.283 1092.2 101.71C1094.96 103.137 1098.8 104.788 1103.71 106.661C1109.95 109.069 1114.77 111.255 1118.16 113.217C1121.64 115.179 1124.04 117.811 1125.38 121.111C1126.18 122.984 1126.59 124.902 1126.59 126.865C1126.59 130.165 1125.47 133.287 1123.24 136.231C1121.1 139.085 1118.07 141.404 1114.14 143.188C1110.31 144.972 1105.94 145.864 1101.03 145.864C1092.29 145.864 1085.55 144.169 1080.83 140.78C1076.1 137.39 1073.24 133.287 1072.26 128.47L1074.27 128.604C1075.88 132.796 1078.77 136.364 1082.97 139.308C1087.16 142.252 1092.56 143.723 1099.16 143.723C1104.24 143.723 1108.26 142.564 1111.2 140.245C1114.23 137.925 1115.75 135.116 1115.75 131.815C1115.75 129.496 1114.95 127.221 1113.34 124.991C1112 123.029 1109.95 121.379 1107.18 120.041C1104.51 118.614 1100.49 116.83 1095.14 114.689C1088.45 112.28 1083.28 109.961 1079.62 107.731C1075.96 105.501 1073.82 102.647 1073.2 99.1679C1073.02 97.9191 1072.93 96.9825 1072.93 96.3581C1072.93 92.7009 1074.18 89.4005 1076.68 86.4569C1079.18 83.4241 1082.52 81.0603 1086.71 79.3655C1090.99 77.5815 1095.54 76.6895 1100.36 76.6895C1107.41 76.6895 1113.07 78.0721 1117.35 80.8373C1121.64 83.6025 1124.44 86.9475 1125.78 90.8723H1123.64ZM1168.94 76.8233C1169.65 76.7341 1170.68 76.6895 1172.02 76.6895C1179.33 76.6895 1185.66 78.3843 1191.02 81.7739C1196.46 85.1635 1200.56 89.5789 1203.33 95.0201C1206.18 100.461 1207.61 106.215 1207.61 112.28C1207.61 118.078 1206.27 123.475 1203.59 128.47C1201.01 133.465 1196.99 137.524 1191.55 140.646C1186.2 143.679 1179.64 145.195 1171.88 145.195C1164.48 145.195 1158.06 143.545 1152.62 140.245C1147.26 136.855 1143.16 132.484 1140.31 127.132C1137.54 121.78 1136.16 116.071 1136.16 110.006C1136.16 104.475 1137.36 99.3017 1139.77 94.4849C1142.27 89.5789 1145.97 85.5203 1150.88 82.3091C1155.87 79.0979 1161.89 77.2693 1168.94 76.8233ZM1170.28 78.4289C1165.55 78.4289 1161.54 79.8561 1158.23 82.7105C1155.02 85.4757 1152.57 89.1329 1150.88 93.6821C1149.27 98.2313 1148.47 103.137 1148.47 108.4C1148.47 114.287 1149.45 119.907 1151.41 125.259C1153.37 130.611 1156.27 134.982 1160.11 138.371C1163.94 141.672 1168.54 143.322 1173.89 143.322C1181.03 143.322 1186.42 140.601 1190.08 135.16C1193.83 129.719 1195.7 123.029 1195.7 115.09C1195.7 109.114 1194.63 103.316 1192.49 97.6961C1190.44 91.9873 1187.49 87.3489 1183.66 83.7809C1179.82 80.2129 1175.36 78.4289 1170.28 78.4289ZM1251.78 71.4713C1253.3 71.1145 1255.04 70.9361 1257 70.9361C1261.73 70.9361 1265.83 72.1849 1269.31 74.6825C1272.79 77.1801 1275.06 80.8373 1276.13 85.6541H1263.82C1263.11 81.9969 1261.64 79.3655 1259.41 77.7599C1257.27 76.1543 1254.68 75.3515 1251.65 75.3515C1247.36 75.3515 1243.62 76.6449 1240.41 79.2317C1237.28 81.7293 1234.7 84.5837 1232.65 87.7949C1232.47 100.461 1232.38 109.917 1232.38 116.161C1232.38 122.494 1232.47 131.994 1232.65 144.66H1219C1219.27 133.421 1219.4 122.271 1219.4 111.21C1219.4 99.9707 1219.27 88.8207 1219 77.7599H1232.91C1232.82 79.3655 1232.78 81.7293 1232.78 84.8513C1234.65 81.9969 1237.2 79.2763 1240.41 76.6895C1243.62 74.0135 1247.41 72.2741 1251.78 71.4713ZM1325.51 80.1683H1307.05L1306.91 124.991C1306.91 129.719 1307.14 133.332 1307.58 135.829C1308.12 138.238 1309.23 140.022 1310.93 141.181C1312.71 142.341 1315.43 142.876 1319.09 142.787V144.66C1313.56 144.838 1309.01 144.482 1305.44 143.59C1301.87 142.698 1299.07 140.78 1297.01 137.836C1294.96 134.893 1293.94 130.566 1293.94 124.858V80.1683H1285.51V77.8937H1293.94V60.4997L1307.18 51.9365L1307.05 77.8937H1325.51V80.1683ZM1379.61 90.8723C1378.01 87.4827 1375.33 84.6283 1371.59 82.3091C1367.93 79.9007 1363.38 78.6965 1357.94 78.6965C1353.3 78.6965 1349.29 79.9453 1345.9 82.4429C1342.51 84.8513 1340.81 87.7949 1340.81 91.2737C1340.81 92.9685 1341.3 94.7079 1342.28 96.4919C1343.53 98.5435 1345.49 100.283 1348.17 101.71C1350.94 103.137 1354.77 104.788 1359.68 106.661C1365.92 109.069 1370.74 111.255 1374.13 113.217C1377.61 115.179 1380.01 117.811 1381.35 121.111C1382.16 122.984 1382.56 124.902 1382.56 126.865C1382.56 130.165 1381.44 133.287 1379.21 136.231C1377.07 139.085 1374.04 141.404 1370.11 143.188C1366.28 144.972 1361.91 145.864 1357 145.864C1348.26 145.864 1341.52 144.169 1336.8 140.78C1332.07 137.39 1329.22 133.287 1328.23 128.47L1330.24 128.604C1331.85 132.796 1334.75 136.364 1338.94 139.308C1343.13 142.252 1348.53 143.723 1355.13 143.723C1360.21 143.723 1364.23 142.564 1367.17 140.245C1370.2 137.925 1371.72 135.116 1371.72 131.815C1371.72 129.496 1370.92 127.221 1369.31 124.991C1367.97 123.029 1365.92 121.379 1363.16 120.041C1360.48 118.614 1356.47 116.83 1351.11 114.689C1344.42 112.28 1339.25 109.961 1335.59 107.731C1331.94 105.501 1329.79 102.647 1329.17 99.1679C1328.99 97.9191 1328.9 96.9825 1328.9 96.3581C1328.9 92.7009 1330.15 89.4005 1332.65 86.4569C1335.15 83.4241 1338.49 81.0603 1342.68 79.3655C1346.97 77.5815 1351.52 76.6895 1356.33 76.6895C1363.38 76.6895 1369.04 78.0721 1373.32 80.8373C1377.61 83.6025 1380.42 86.9475 1381.75 90.8723H1379.61Z" fill="#EDD12F"/>
<path d="M107.94 43.91H110.86L126.55 0H124.99L119.65 14.86H103.74C103.45 14.11 103.21 13.44 103.05 12.86C101.117 7.70667 99.5702 3.42 98.4102 0H91.4102C95.9368 11.2533 101.447 25.89 107.94 43.91ZM119.17 16.35L111.96 36.57C109.027 28.9633 106.473 22.21 104.3 16.31L119.17 16.35Z" fill="#EDD12F"/>
<path d="M80.0201 34.24C80.0201 37.75 79.9201 40.9499 79.8301 43.7899V43.91H86.3601V43.7899C86.1534 36.4566 86.0501 29.1766 86.0501 21.9499C86.0501 14.7233 86.1534 7.38995 86.3601 -0.0500488H79.8601C79.9301 2.34995 79.9901 4.94995 80.0201 7.79995C80.0201 8.38995 80.0201 9.00995 80.0201 9.61995C80.0734 13.36 80.0967 17.4533 80.0901 21.9C80.0901 25.66 80.0901 29.1399 80.0301 32.3699C80.0301 33.0399 80.0301 33.64 80.0201 34.24Z" fill="#EDD12F"/>
<path d="M66.9101 52.41L68.9901 50.35L48.9901 8.20996L47.9201 9.34996L54.6601 23.63L43.3901 34.85C42.6601 34.52 42.0201 34.21 41.4901 33.92C36.4901 31.64 32.3668 29.7033 29.1201 28.11L24.1201 33.11C35.2801 37.8233 49.5435 44.2566 66.9101 52.41ZM55.3301 24.96L64.5601 44.35C57.1001 41.0166 50.5201 38.0466 44.8201 35.44L55.3301 24.96Z" fill="#EDD12F"/>
<path d="M40.3304 65.3501C42.7804 67.8601 45.0004 70.1601 46.9404 72.2301L47.0304 72.3201L51.6504 67.7001L51.5604 67.6201C46.2138 62.5401 40.9804 57.4501 35.8604 52.3501C30.7404 47.2501 25.6404 42.0001 20.5604 36.6001L15.9404 41.2201C17.6904 42.8701 19.5804 44.6901 21.6004 46.6601L22.9204 47.9301C25.5871 50.5368 28.4938 53.4134 31.6404 56.5601C34.3004 59.2201 36.7604 61.6901 39.0104 64.0101C39.4904 64.4601 39.9204 64.8901 40.3304 65.3501Z" fill="#EDD12F"/>
<path d="M43.91 87.4401V84.5001L0 68.8201V70.3501L14.86 75.7101V91.6501C14.11 91.9401 13.44 92.1701 12.86 92.3401C7.70667 94.2601 3.42 95.8067 0 96.9801V103.98C11.24 99.4401 25.8767 93.9267 43.91 87.4401ZM16.31 76.2201L36.57 83.4301C28.9567 86.3634 22.2033 88.9167 16.31 91.0901V76.2201Z" fill="#EDD12F"/>
<path d="M34.2302 115.35C37.7502 115.35 40.9402 115.45 43.7802 115.54H43.9102V109.01H43.7802C36.4302 109.23 29.1402 109.33 21.9502 109.33C14.7602 109.33 7.4402 109.23 -0.0498047 109.01V115.54C2.3502 115.48 4.9502 115.42 7.8002 115.39H9.6202C13.3469 115.35 17.4402 115.33 21.9002 115.33C25.6502 115.33 29.1402 115.33 32.3702 115.33L34.2302 115.35Z" fill="#EDD12F"/>
<path d="M52.4104 128.48L50.3304 126.4L8.19043 146.35L9.30043 147.45L23.5804 140.72L34.8604 151.99C34.5404 152.73 34.2304 153.37 33.9404 153.9C31.6604 158.9 29.7204 163.01 28.1304 166.27L33.1304 171.27C37.8304 160.083 44.2571 145.82 52.4104 128.48ZM24.9604 140.05L44.3904 130.83C41.0571 138.283 38.0871 144.863 35.4804 150.57L24.9604 140.05Z" fill="#EDD12F"/>
<path d="M65.3101 155.06C67.8301 152.61 70.1301 150.39 72.2001 148.44L72.2901 148.36L67.6701 143.74L67.5801 143.83C62.5268 149.163 57.4534 154.383 52.3601 159.49C47.2668 164.597 42.0201 169.697 36.6201 174.79L41.2401 179.4C42.8934 177.66 44.7068 175.773 46.6801 173.74L47.9401 172.43C50.5468 169.763 53.4268 166.853 56.5801 163.7C59.2468 161.033 61.7301 158.577 64.0301 156.33L65.3101 155.06Z" fill="#EDD12F"/>
<path d="M87.4404 151.48H84.5004L68.8604 195.35H70.4304L75.7603 180.49H91.7003C91.9903 181.24 92.2204 181.91 92.3904 182.49C94.3104 187.63 95.857 191.917 97.0303 195.35H104.03C99.4637 184.13 93.9337 169.507 87.4404 151.48ZM76.2204 179.08L83.4304 158.82C86.3637 166.433 88.917 173.187 91.0903 179.08H76.2204Z" fill="#EDD12F"/>
<path d="M115.36 161.15C115.41 157.64 115.46 154.44 115.55 151.6V151.48H109.02V151.6C109.233 158.933 109.34 166.213 109.34 173.44C109.34 180.667 109.233 187.97 109.02 195.35H115.55C115.483 192.95 115.433 190.333 115.4 187.5C115.4 186.91 115.4 186.29 115.4 185.68C115.36 181.94 115.336 177.847 115.33 173.4C115.33 169.64 115.33 166.16 115.39 162.92C115.35 162.35 115.35 161.75 115.36 161.15Z" fill="#EDD12F"/>
<path d="M128.48 142.98L126.4 145.05L146.4 187.2L147.51 186.09L140.77 171.81L152.04 160.54C152.78 160.87 153.42 161.18 153.95 161.47C158.944 163.75 163.067 165.687 166.32 167.28L171.32 162.28C160.087 157.567 145.807 151.133 128.48 142.98ZM140.05 170.43L130.86 151C138.307 154.333 144.887 157.303 150.6 159.91L140.05 170.43Z" fill="#EDD12F"/>
<path d="M155.06 130.07C152.61 127.56 150.39 125.26 148.44 123.19L148.35 123.1L143.74 127.72L143.82 127.8C149.154 132.86 154.377 137.933 159.49 143.02C164.604 148.107 169.7 153.353 174.78 158.76L179.4 154.15C177.65 152.49 175.77 150.68 173.74 148.71L172.43 147.44C169.764 144.827 166.854 141.95 163.7 138.81C161.04 136.15 158.58 133.68 156.33 131.36C155.86 130.93 155.47 130.5 155.06 130.07Z" fill="#EDD12F"/>
<path d="M151.48 107.94V110.94L195.39 126.62V125.06L180.53 119.72V103.74C181.28 103.45 181.95 103.22 182.53 103.05C187.67 101.117 191.957 99.5699 195.39 98.4099V91.4099C184.137 95.9499 169.5 101.46 151.48 107.94ZM179.07 119.17L158.86 111.96C166.48 109.033 173.234 106.48 179.12 104.3L179.07 119.17Z" fill="#EDD12F"/>
<path d="M161.15 80.0301C157.64 79.9801 154.44 79.9201 151.6 79.8401H151.48V86.3501H151.6C158.934 86.1368 166.214 86.0334 173.44 86.0401C180.667 86.0468 187.984 86.1501 195.39 86.3501V79.8401C192.98 79.9001 190.39 79.9601 187.54 79.9901H185.72C181.98 80.0301 177.887 80.0501 173.44 80.0501C169.68 80.0501 166.19 80.0501 162.96 80.0501L161.15 80.0301Z" fill="#EDD12F"/>
<path d="M142.97 66.9101L145.05 68.9901L187.19 48.9901L186.09 47.8901L171.86 54.6601L160.54 43.4001C160.87 42.6601 161.17 42.0201 161.47 41.4901C163.736 36.4901 165.673 32.3668 167.28 29.1201L162.28 24.1201C157.573 35.3135 151.136 49.5768 142.97 66.9101ZM170.42 55.3501L151 64.5801C154.333 57.1335 157.303 50.5535 159.91 44.8401L170.42 55.3501Z" fill="#EDD12F"/>
<path d="M130.07 40.35C127.56 42.8 125.25 45.02 123.18 46.97L123.1 47.05L127.71 51.67L127.8 51.58C132.853 46.2467 137.926 41.0267 143.02 35.92C148.113 30.8133 153.36 25.7133 158.76 20.62L154.14 16C152.493 17.7533 150.683 19.6433 148.71 21.67C148.29 22.09 147.87 22.54 147.44 22.98C144.826 25.6467 141.95 28.5567 138.81 31.71C136.15 34.36 133.68 36.82 131.36 39.08C130.92 39.49 130.5 39.92 130.07 40.35Z" fill="#EDD12F"/>
</g>
<defs>
<clipPath id="clip0_1378_48">
<rect width="1426" height="195" fill="white"/>
</clipPath>
</defs>
</svg>
